<mxfile host="app.diagrams.net" modified="2024-03-26T11:42:07.744Z" agent="Mozilla/5.0 (Macintosh; Intel Mac OS X 10_15_7) AppleWebKit/537.36 (KHTML, like Gecko) Chrome/122.0.0.0 Safari/537.36" version="24.1.0" etag="vEfafmAiITxI-aaKhRco" type="github">
  <diagram name="第 1 页" id="X3bbNByNgb3WK9KMGhzf">
    <mxGraphModel>
      <root>
        <mxCell id="0" />
        <mxCell id="1" parent="0" />
      </root>
    </mxGraphModel>
  </diagram>
</mxfile>
